<svg width="140" height="140" viewBox="0 0 140 140" fill="none" xmlns="http://www.w3.org/2000/svg">
<path d="M23.3333 23.334H116.667C119.761 23.334 122.728 24.5631 124.916 26.7511C127.104 28.939 128.333 31.9065 128.333 35.0007V93.334C128.333 94.8811 127.719 96.3647 126.625 97.4587C125.531 98.5527 124.047 99.1673 122.5 99.1673H17.5C15.9529 99.1673 14.4692 98.5527 13.3753 97.4587C12.2813 96.3647 11.6667 94.8811 11.6667 93.334V35.0007C11.6667 31.9065 12.8956 28.939 15.0836 26.7511C17.2715 24.5631 20.2391 23.334 23.3333 23.334Z" fill="#5096FF"/>
<path d="M5.83334 99.166H134.167V104.999C134.167 106.546 133.552 108.03 132.458 109.124C131.364 110.218 129.88 110.833 128.333 110.833H11.6667C10.1196 110.833 8.63593 110.218 7.54197 109.124C6.44801 108.03 5.83334 106.546 5.83334 104.999V99.166Z" fill="#737A83"/>
<path d="M116.667 35H23.3333V87.5H116.667V35Z" fill="url(#paint0_linear_1510_1350)"/>
<defs>
<linearGradient id="paint0_linear_1510_1350" x1="23.3333" y1="35" x2="116.667" y2="87.5" gradientUnits="userSpaceOnUse">
<stop offset="0.255208" stop-color="#F0FCFF"/>
<stop offset="1" stop-color="#ECEEFF"/>
</linearGradient>
</defs>
</svg>
